:FULLY-SPECIFIED
:DEGREES
2390
root 7.97156 16.5213 -2.99998 6882.61 -96.1253 -6869.95
lowerback -0.576429 2.22838 -4.05462
upperback 2.0183 3.04443 -2.26371
thorax 2.31014 1.44535 0.0170064
lowerneck -19.3231 1.737 -0.821216
upperneck 33.5184 1.47445 1.58555
head 14.8448 0.473036 0.995242
rclavicle 4.45278e-014 -2.50469e-014
rhumerus -21.8718 0.11585 -87.1861
rradius 40.0131
rwrist 16.1941
rhand -25.3093 -12.5111
rfingers 7.12502
rthumb 1.2128 -42.4874
lclavicle 4.45278e-014 -2.50469e-014
lhumerus -35.641 -1.39591 84.3774
lradius 22.3816
lwrist -0.811176
lhand -19.2837 7.02925
lfingers 7.12502
lthumb 7.03134 36.8925
rfemur -21.1203 -2.88129 14.5131
rtibia 68.0892
rfoot 7.35479 4.77024
rtoes -14.2674
lfemur -36.7587 3.03174 -28.2235
ltibia 32.9996
lfoot -7.34635 2.57338
ltoes -4.53025
2391
root 7.96195 16.5478 -2.98201 6883.33 -96.1667 -6870.72
lowerback -0.64693 2.06638 -3.96702
upperback 1.98017 2.83067 -2.23676
thorax 2.3192 1.34103 -0.00644984
lowerneck -19.231 1.77971 -0.915308
upperneck 33.6961 1.53811 1.61493
head 14.9031 0.483224 1.03489
rclavicle 1.80894e-014 -2.94201e-014
rhumerus -22.0867 0.124263 -87.3118
rradius 39.2438
rwrist 16.7198
rhand -24.5881 -11.5167
rfingers 7.12502
rthumb 1.90941 -41.4879
lclavicle 1.80894e-014 -2.94201e-014
lhumerus -35.3508 -2.06511 84.7496
lradius 22.9553
lwrist -0.673588
lhand -19.0834 7.02998
lfingers 7.12502
lthumb 7.22469 36.8866
rfemur -23.1761 -3.17428 14.2608
rtibia 70.1428
rfoot 6.92459 4.67086
rtoes -13.7163
lfemur -35.6575 2.90109 -28.3712
ltibia 32.8839
lfoot -8.01224 2.57865
ltoes -4.17078
2392
root 7.95874 16.5713 -2.96678 6882.92 -95.9544 -6870.33
lowerback -0.680217 1.91609 -3.58461
upperback 1.93745 2.62596 -2.17288
thorax 2.31275 1.24764 -0.157436
lowerneck -19.1992 1.75347 -1.04721
upperneck 33.8369 1.46798 1.78219
head 14.9589 0.45379 1.11511
rclavicle 9.34288e-015 -2.34566e-014
rhumerus -22.3033 -0.10854 -87.3968
rradius 38.4559
rwrist 17.7963
rhand -23.2744 -11.3211
rfingers 7.12502
rthumb 3.17809 -41.2771
lclavicle 9.34288e-015 -2.34566e-014
lhumerus -34.973 -3.05855 85.1838
lradius 23.5786
lwrist -0.183314
lhand -19.4945 6.72682
lfingers 7.12502
lthumb 6.82776 36.5967
rfemur -25.2364 -3.43925 14.3781
rtibia 71.8404
rfoot 6.41306 4.7089
rtoes -13.165
lfemur -34.6916 2.80864 -28.2729
ltibia 32.8798
lfoot -8.66992 2.51641
ltoes -4.58773
2393
root 7.95405 16.5984 -2.9497 6882.08 -95.6335 -6869.56
lowerback -0.730235 1.77093 -3.03277
upperback 1.95149 2.42756 -2.11011
thorax 2.37882 1.15918 -0.40275
lowerneck -19.156 1.6872 -1.12483
upperneck 33.8582 1.33422 1.93096
head 14.9592 0.405878 1.16563
rclavicle -1.78906e-014 1.90833e-014
rhumerus -22.5444 -0.50707 -87.426
rradius 37.6424
rwrist 18.9725
rhand -22.3504 -10.5957
rfingers 7.12502
rthumb 4.07037 -40.5365
lclavicle -1.78906e-014 1.90833e-014
lhumerus -34.4856 -3.86028 85.4389
lradius 24.142
lwrist -0.210818
lhand -19.7694 6.46267
lfingers 7.12502
lthumb 6.56247 36.341
rfemur -27.1433 -3.68685 14.6217
rtibia 73.1349
rfoot 5.89275 4.97408
rtoes -13.3036
lfemur -33.6626 2.54915 -28.0254
ltibia 32.8747
lfoot -9.3791 2.47198
ltoes -4.56969
2394
root 7.95155 16.6197 -2.93579 6881.66 -95.2452 -6869.24
lowerback -0.742138 1.61144 -2.53638
upperback 1.98491 2.20835 -2.0216
thorax 2.4374 1.05915 -0.593229
lowerneck -19.1841 1.59962 -1.17469
upperneck 33.8325 1.16736 2.07718
head 14.9557 0.349914 1.20496
rclavicle 5.46658e-015 4.37326e-015
rhumerus -22.8009 -1.05419 -87.3731
rradius 36.7752
rwrist 20.464
rhand -21.7844 -9.74468
rfingers 7.12502
rthumb 4.61696 -39.6744
lclavicle 5.46658e-015 4.37326e-015
lhumerus -34.0426 -4.71169 85.7529
lradius 24.9797
lwrist 0.211861
lhand -20.1736 6.38755
lfingers 7.12502
lthumb 6.17223 36.2776
rfemur -28.9737 -3.96799 14.9077
rtibia 74.1139
rfoot 5.36838 5.37232
rtoes -12.6223
lfemur -32.6147 2.20011 -27.7622
ltibia 32.8947
lfoot -10.2052 2.3762
ltoes -3.49776
2395
root 7.95198 16.6403 -2.92223 6881.54 -94.8483 -6869.23
lowerback -0.677905 1.42584 -2.15343
upperback 1.98651 1.95149 -1.86988
thorax 2.41155 0.938687 -0.659775
lowerneck -19.2072 1.54349 -1.22427
upperneck 33.8418 1.05735 2.1867
head 14.9666 0.311458 1.23949
rclavicle -2.57426e-014 1.61016e-014
rhumerus -23.2368 -1.35559 -87.2967
rradius 36.2418
rwrist 21.2023
rhand -20.9817 -9.58087
rfingers 7.12502
rthumb 5.39198 -39.4923
lclavicle -2.57426e-014 1.61016e-014
lhumerus -33.6241 -5.33215 86.055
lradius 25.8407
lwrist 0.50987
lhand -20.7333 6.34892
lfingers 7.12502
lthumb 5.63188 36.2541
rfemur -30.7297 -4.21507 15.1996
rtibia 74.7696
rfoot 4.72771 5.8763
rtoes -12.8576
lfemur -31.5621 1.96072 -27.5673
ltibia 32.8706
lfoot -10.817 2.22767
ltoes -3.98594
2396
root 7.95274 16.6551 -2.91004 6880.65 -94.3523 -6868.5
lowerback -0.544875 1.20557 -1.76239
upperback 1.97472 1.64527 -1.6024
thorax 2.32802 0.793308 -0.614967
lowerneck -19.12 1.47012 -1.36721
upperneck 33.7668 0.964521 2.27773
head 14.9118 0.266403 1.28315
rclavicle 1.60022e-014 1.51076e-014
rhumerus -23.6648 -1.5877 -87.0774
rradius 35.5421
rwrist 22.102
rhand -20.2884 -9.32693
rfingers 7.12502
rthumb 6.06135 -39.2202
lclavicle 1.60022e-014 1.51076e-014
lhumerus -33.3059 -5.80395 86.4173
lradius 26.7912
lwrist 1.042
lhand -21.4341 6.20507
lfingers 7.12502
lthumb 4.95524 36.1271
rfemur -32.3291 -4.50468 15.6287
rtibia 75.1587
rfoot 4.10604 6.60475
rtoes -12.1945
lfemur -30.4852 1.57688 -27.2134
ltibia 32.938
lfoot -11.4878 2.10736
ltoes -4.61142
